<svg width="48" height="24" viewBox="0 0 48 24" fill="none" xmlns="http://www.w3.org/2000/svg">
<path d="M18.9231 22H12.1538C9.46088 22 6.87821 20.9464 4.97399 19.0711C3.06978 17.1957 2 14.6522 2 12C2 9.34783 3.06978 6.8043 4.97399 4.92893C6.87821 3.05357 9.46088 2 12.1538 2H18.9231M29.0769 2H35.8462C38.5391 2 41.1218 3.05357 43.026 4.92893C44.9302 6.8043 46 9.34783 46 12C46 14.6522 44.9302 17.1957 43.026 19.0711C41.1218 20.9464 38.5391 22 35.8462 22H29.0769M14.1941 12H34.0174" stroke="#5696D3" stroke-width="4" stroke-linecap="round" stroke-linejoin="round"/>
</svg>
