<svg width="22" height="20" viewBox="0 0 22 20" fill="none" xmlns="http://www.w3.org/2000/svg">
<path d="M18.7917 0H9.625C8.77438 0.000902401 7.95885 0.336419 7.35737 0.93293C6.75589 1.52944 6.41758 2.33822 6.41667 3.18182V9.09091H15.2035L12.1854 6.09716C12.0207 5.92528 11.9303 5.69642 11.9333 5.45937C11.9364 5.22231 12.0327 4.99582 12.2017 4.82818C12.3708 4.66054 12.5992 4.56502 12.8382 4.56199C13.0772 4.55895 13.308 4.64864 13.4813 4.81193L18.0646 9.35739C18.2364 9.52786 18.3329 9.759 18.3329 10C18.3329 10.241 18.2364 10.4721 18.0646 10.6426L13.4813 15.1881C13.308 15.3514 13.0772 15.441 12.8382 15.438C12.5992 15.435 12.3708 15.3395 12.2017 15.1718C12.0327 15.0042 11.9364 14.7777 11.9333 14.5406C11.9303 14.3036 12.0207 14.0747 12.1854 13.9028L15.2035 10.9091H6.41667V16.8182C6.41667 18.6392 8.35255 20 10.0833 20H18.7917C19.6423 19.9991 20.4578 19.6636 21.0593 19.0671C21.6608 18.4706 21.9991 17.6618 22 16.8182V3.18182C21.9991 2.33822 21.6608 1.52944 21.0593 0.93293C20.4578 0.336419 19.6423 0.000902401 18.7917 0ZM0.916667 9.09091C0.673552 9.09091 0.440394 9.18669 0.268486 9.35718C0.0965773 9.52766 0 9.75889 0 10C0 10.2411 0.0965773 10.4723 0.268486 10.6428C0.440394 10.8133 0.673552 10.9091 0.916667 10.9091H6.41667V9.09091H0.916667Z" fill="#5696D3"/>
</svg>
