<svg width="111" height="347" viewBox="0 0 111 347" fill="none" xmlns="http://www.w3.org/2000/svg">
<path d="M50.8039 346.344C40.3581 344.942 28.0129 343.316 15.6119 341.689C6.95355 340.568 2.98742 335.521 1.87022 326.94C-2.59861 292.619 1.87027 259.252 12.3162 226.613C17.0643 211.808 43.5979 199.639 58.1775 204.518C75.0473 210.182 88.2303 217.809 91.5261 238.614C94.766 259.084 103.257 278.656 108.34 298.844C115.993 329.24 106.217 342.475 74.9914 345.223C67.6178 345.896 60.1884 345.952 50.748 346.344H50.8039Z" fill="white"/>
<path d="M75.3274 206.368C56.67 193.638 37.6216 193.75 16.3947 211.864C16.3947 193.75 16.3947 180.347 16.3947 167C16.3388 127.351 15.3892 87.7589 16.5623 48.1664C16.9533 34.1464 22.1483 20.2385 25.7234 6.4428C26.3937 3.9192 29.7453 0.55439 32.0356 0.44223C34.1025 0.33007 37.454 3.6388 38.4595 6.1624C63.3732 69.0842 78.1204 134.137 77.3384 202.218C77.3384 203.06 76.6122 203.845 75.3274 206.48V206.368Z" fill="white"/>
</svg>
