<svg width="84" height="328" viewBox="0 0 84 328" fill="none" xmlns="http://www.w3.org/2000/svg">
<path d="M44.6794 327.177C34.1777 325.662 23.1732 325.606 13.3976 322.017C7.69984 319.942 -0.344079 311.867 0.102804 307.1C2.67238 276.873 -1.01437 245.412 15.241 217.484C16.8609 214.68 18.3133 211.708 20.3801 209.24C31.3288 196.061 35.3507 195.781 48.7013 206.66C75.5143 228.532 90.8759 281.135 80.2624 308.558C73.2799 326.56 60.823 328.747 44.7353 327.177H44.6794Z" fill="white"/>
<path d="M17.9778 0.397878C22.1673 7.35181 27.6417 13.801 30.323 21.2597C50.8237 79.0782 56.3539 138.86 53.1698 203.183C38.8696 186.584 26.9714 191.967 14.1793 207.445C6.91749 136.785 14.5145 69.4324 11.945 2.19244C13.9559 1.57556 15.9668 0.958678 17.9778 0.341797V0.397878Z" fill="white"/>
</svg>
