<svg width="100" height="387" viewBox="0 0 100 387" fill="none" xmlns="http://www.w3.org/2000/svg">
<path d="M0.527379 329.882C2.70593 296.234 9.74437 264.492 35.9987 240.434C47.6735 229.779 55.8292 229.723 64.711 242.846C83.8152 270.886 95.4341 302.347 99.7912 335.938C102.249 355.062 70.5205 384.84 48.9584 386.018C24.4915 387.364 2.42663 368.241 0.527379 343.902C0.192217 339.303 0.527379 334.593 0.527379 329.938V329.882Z" fill="white"/>
<path d="M75.5481 245.706C60.6147 229.107 42.0691 229.051 19.9111 245.538V0.804688C26.6702 8.15118 33.15 13.8153 37.8982 20.657C55.6618 46.3978 66.3311 74.7743 68.7889 106.179C72.364 152.445 76.1067 198.711 79.7376 244.977C78.3411 245.202 76.9446 245.482 75.5481 245.706Z" fill="white"/>
</svg>
