<svg width="89" height="309" viewBox="0 0 89 309" fill="none" xmlns="http://www.w3.org/2000/svg">
<path d="M88.1845 257.191C88.6313 283.661 70.4767 306.541 54.4448 308.616C35.3406 311.084 12.4378 295.157 8.41588 276.202C3.38845 252.256 3.8353 228.253 17.4652 207.504C23.4981 198.251 35.1171 187.259 44.5017 186.979C58.2433 186.586 71.985 196.064 76.6214 211.598C81.8722 229.319 85.7825 247.433 88.1845 257.191Z" fill="white"/>
<path d="M30.7042 0.0619407C58.2992 62.3108 55.8972 129.831 75.4483 194.435C58.1316 186.192 43.1052 169.255 25.174 188.659C13.7785 163.872 16.9625 17.2224 30.6483 0.00585938L30.7042 0.0619407Z" fill="white"/>
<path d="M13.3874 18.9064V124.169C11.544 124.281 9.7006 124.393 7.91307 124.505C5.28763 93.9976 2.15948 63.4901 0.651251 32.8703C0.371949 27.4306 6.90759 21.6543 10.3151 15.9902C11.3206 16.9436 12.3819 17.897 13.3874 18.8503V18.9064Z" fill="white"/>
</svg>
