<svg width="78" height="316" viewBox="0 0 78 316" fill="none" xmlns="http://www.w3.org/2000/svg">
<path d="M56.0848 206.26C43.5163 197.231 30.6684 194.034 17.0385 204.129C15.7537 203.624 14.4689 203.119 13.1841 202.671C16.424 135.767 19.7197 68.9196 22.9596 2.0161C25.1382 1.39922 27.3726 0.782336 29.5512 0.109375C33.238 5.60522 38.9357 10.6524 40.1646 16.653C45.5831 43.4593 51.225 70.3777 53.9063 97.5765C57.4255 133.075 58.2075 168.798 60.2185 204.465C58.8778 205.082 57.4814 205.643 56.1407 206.26H56.0848Z" fill="white"/>
<path d="M77.6469 273.612C77.8145 300.755 63.4584 315.279 44.41 315.279C11.8434 315.279 -4.13266 297.502 2.1237 265.761C5.53118 248.6 10.7262 231.44 17.9322 215.569C24.412 201.325 34.9696 199.25 47.7058 208.615C55.5821 214.391 63.5701 222.523 66.9217 231.328C72.9547 247.254 75.4684 264.471 77.6469 273.556V273.612Z" fill="white"/>
</svg>
