<svg width="173" height="298" viewBox="0 0 173 298" fill="none" xmlns="http://www.w3.org/2000/svg">
<path d="M101.719 0.913503C124.342 18.9152 138.251 43.1979 140.151 71.6866C142.608 108.251 140.765 145.095 140.765 183.006C106.858 181.211 72.5595 168.425 37.4792 183.678C14.0178 130.178 4.07467 74.3784 0.611328 17.1767C1.84026 16.7281 3.12508 16.2234 4.354 15.7747C16.1964 32.767 27.9829 49.8153 39.937 66.7515C51.2208 82.7343 62.3929 98.7732 74.1794 114.363C76.6932 117.672 82.7819 121.99 85.0722 120.925C88.9266 119.242 93.0602 113.803 93.4512 109.597C94.9036 94.9598 95.1271 80.2107 95.2947 65.4617C95.574 44.3195 95.3505 23.1773 95.3505 2.0351C97.4732 1.64254 99.54 1.24998 101.663 0.857422L101.719 0.913503Z" fill="white"/>
<path d="M97.4733 231.572C86.1895 244.863 75.7995 244.695 64.9067 233.647C65.2418 235.105 65.0743 237.292 65.9122 237.853C81.3855 248.396 75.6877 263.818 73.9561 277.333C72.5037 288.717 39.0434 294.045 28.4299 285.409C11.7835 271.837 6.92364 255.574 13.4034 234.656C14.6324 230.675 15.7496 226.581 17.0344 222.655C26.8658 192.989 44.2942 180.707 75.576 182.109C87.6419 182.67 99.6518 185.698 111.606 185.25C144.899 184.016 157.02 206.504 166.684 232.413C167.019 233.254 167.131 234.208 167.41 235.105C172.27 251.648 177.968 266.902 160.149 281.483C142.217 296.12 125.403 303.074 102.948 293.428C79.3745 283.334 77.3636 281.483 81.9441 257.873C82.7262 253.78 85.8543 249.91 88.5915 246.545C91.5521 242.9 95.2947 239.984 98.7022 236.787C98.2553 235.049 97.8643 233.254 97.4174 231.516L97.4733 231.572Z" fill="white"/>
<path d="M83.7319 114.42C45.5235 76.6219 25.302 37.8705 51.5564 7.0265C52.3384 7.0265 53.7908 6.69002 54.0142 7.0265C66.0242 27.8883 80.4362 47.7967 88.927 70.0605C93.8427 82.9589 89.2063 99.5025 88.927 114.42C87.1953 114.42 85.4636 114.42 83.7319 114.42Z" fill="white"/>
</svg>
