<svg width="135" height="272" viewBox="0 0 135 272" fill="none" xmlns="http://www.w3.org/2000/svg">
<path d="M54.6032 12.3276C77.2825 26.0111 99.1239 40.1994 103.202 67.3421C108.453 102.56 110.855 138.171 114.597 174.343H23.3772C21.8131 126.058 20.1932 75.7541 18.5732 25.3942C19.858 25.1138 21.1428 24.8334 22.4276 24.553C46.671 52.5931 47.3413 90.6714 62.5912 125.721C82.4775 84.783 79.4052 48.2749 54.6032 12.2715V12.3276Z" fill="white"/>
<path d="M69.4616 225.265C65.5514 228.125 61.6412 231.041 57.2282 234.237C53.4297 232.05 49.6871 229.863 45.4975 227.508C49.5195 238.219 53.318 248.257 57.2282 258.52C46.7265 263.063 38.8502 266.82 30.6946 269.96C20.919 273.774 0.697533 256.501 0.19479 242.201C-0.531395 220.778 7.68008 200.253 22.6507 186.962C31.8676 178.774 49.6871 179.223 63.8197 178.101C76.1649 177.148 89.0686 178.101 101.19 180.737C108.061 182.251 114.988 187.915 119.792 193.523C124.763 199.356 128.45 207.039 130.349 214.497C134.036 228.798 139.119 244.668 126.327 256.669C112.418 269.736 94.7664 274.279 75.8856 269.904C59.9654 266.203 54.8262 249.828 64.7135 236.425C67.0038 233.284 69.0706 229.975 71.1933 226.779C70.6347 226.274 70.0202 225.769 69.4616 225.265Z" fill="white"/>
<path d="M25.2764 0.550781C58.9043 7.44863 78.2878 70.4826 62.0325 107.383C58.4015 95.2139 55.9437 84.5026 52.0893 74.3521C46.5033 59.6592 39.409 45.5831 33.8789 30.8901C30.1921 21.1322 28.0694 10.7013 25.2764 0.606863V0.550781Z" fill="white"/>
</svg>
