<svg width="121" height="250" viewBox="0 0 121 250" fill="none" xmlns="http://www.w3.org/2000/svg">
<path d="M106.622 163.681C79.2503 148.595 52.996 144.165 26.3506 154.82C31.8249 129.36 39.6453 104.909 41.6005 79.9535C43.6114 54.8296 39.8129 29.201 38.4164 0.65625C72.0444 18.2654 60.7606 52.2499 72.0444 76.9251C71.2623 53.0911 69.3631 29.3692 61.8219 5.31089C82.7137 13.9472 92.3217 33.2388 103.717 50.5675C127.737 87.0195 122.821 124.257 106.622 163.681Z" fill="white"/>
<path d="M78.0767 207.423C74.3899 210.675 70.759 213.928 67.0163 217.237C64.1116 214.881 61.2068 212.47 57.1849 209.161C61.1696 227.181 53.8333 236.64 35.1759 237.538C10.0946 238.715 7.3016 236.528 2.33003 211.572C-4.70837 176.13 3.39138 164.521 38.1365 156.95C58.749 152.464 77.6856 155.773 96.0637 164.858C119.246 176.354 116.9 197.833 115.671 218.302C114.833 231.986 110.085 243.594 94.8348 247.8C84.5565 250.66 73.2168 250.997 68.9156 241.519C66.2901 235.855 72.3231 225.929 75.0602 218.134C76.1216 215.049 78.8587 212.582 80.8697 209.778L78.1325 207.366L78.0767 207.423Z" fill="white"/>
<path d="M24.7305 124.762C26.4063 99.0769 28.0262 73.4483 29.702 47.7637C31.6572 47.9319 33.6681 48.0441 35.6232 48.2123C37.1873 74.1774 41.1534 100.311 28.9759 125.098C27.5793 124.986 26.127 124.874 24.7305 124.762Z" fill="white"/>
</svg>
