<svg width="112" height="348" viewBox="0 0 112 348" fill="none" xmlns="http://www.w3.org/2000/svg">
<path d="M53.9971 345.497C45.6739 345.497 37.239 346.226 28.9717 345.329C8.07989 343.142 -3.31568 330.748 0.985565 310.279C7.24192 280.332 13.9452 249.824 26.2903 222.177C30.8708 211.914 51.3716 205.746 65.5043 203.614C79.5252 201.54 98.1267 220.663 101.534 235.075C108.628 265.022 114.159 295.025 109.243 326.206C107.623 336.356 103.545 341.459 94.1048 342.693C80.81 344.432 67.4594 345.721 54.1088 347.236C54.1088 346.675 54.0529 346.058 53.9971 345.497Z" fill="white"/>
<path d="M92.8211 209.668C75.914 202.154 55.2271 201.032 30.7603 206.304C34.3912 173.497 35.5642 141.307 42.0999 110.238C49.1942 76.2539 61.1483 43.2788 71.3708 9.96722C72.4321 6.49025 76.1189 3.8545 78.6326 0.826172C81.3698 3.63018 85.1683 5.98553 86.5648 9.29426C89.8605 17.3698 94.0501 25.894 94.1618 34.306C94.7762 91.1712 94.3852 147.98 94.2176 204.845C94.2176 206.079 93.5473 207.369 92.877 209.612L92.8211 209.668Z" fill="white"/>
</svg>
