<svg width="85" height="328" viewBox="0 0 85 328" fill="none" xmlns="http://www.w3.org/2000/svg">
<path d="M34.5176 327.952C13.2348 327.784 0.331039 317.97 0.386899 295.538C0.49862 259.983 7.48119 226.167 39.6009 203.398C47.3096 197.902 52.2812 198.407 58.7051 204.632C72.0557 217.587 78.2004 233.85 80.3231 251.739C82.334 268.339 83.1161 285.107 84.7361 301.763C86.0767 315.614 79.4293 322.849 66.3021 324.587C55.7445 325.989 45.131 326.887 34.5176 328.008V327.952Z" fill="white"/>
<path d="M71.2181 1.56496V209.342C57.9233 195.938 46.8071 185.115 30.4958 205.696C28.9317 131.39 30.9986 63.0287 64.5707 0.443359C66.8051 0.83592 68.9837 1.1724 71.2181 1.56496Z" fill="white"/>
</svg>
