<svg width="102" height="385" viewBox="0 0 102 385" fill="none" xmlns="http://www.w3.org/2000/svg">
<path d="M101.758 329.722C101.535 358.547 91.7032 373.521 70.4763 381.652C51.1486 389.055 34.9492 384.008 18.0235 366.959C2.99708 351.762 -3.92962 334.938 4.39357 314.132C13.4988 291.363 21.4868 267.978 32.7147 246.331C42.8813 226.759 53.1597 226.647 68.5213 242.013C93.9378 267.473 99.0768 300.336 101.758 329.722Z" fill="white"/>
<path d="M81.7043 0.251953V243.191C69.6385 236.517 60.1981 227.152 50.9253 227.32C41.8759 227.488 32.9941 237.358 23.9448 243.023C23.833 241.284 23.051 237.358 23.3861 233.545C27.1288 183.914 30.2569 134.171 35.1727 84.5964C37.854 57.5097 51.9867 34.5169 67.2924 12.6456C70.6999 7.76668 76.5651 4.6262 81.816 0.251953H81.7043Z" fill="white"/>
</svg>
