<svg width="90" height="307" viewBox="0 0 90 307" fill="none" xmlns="http://www.w3.org/2000/svg">
<path d="M84.3278 243.515C82.652 271.555 81.1436 290.678 60.1401 301.614C33.1596 315.634 -0.468303 297.632 0.816485 267.013C1.65439 246.936 5.67644 225.906 13.6645 207.68C18.1892 197.361 33.1038 187.155 44.4434 185.753C52.7107 184.687 66.0055 196.183 71.3122 205.437C79.1327 219.064 81.8141 235.608 84.3278 243.515Z" fill="white"/>
<path d="M64.4414 187.379C52.6735 179.416 36.5484 180.986 16.0663 192.09C14.2229 161.751 47.7392 13.0823 59.2464 0.408203C71.424 11.9607 75.781 159.339 64.4414 187.379Z" fill="white"/>
<path d="M72.8761 123.279C72.8761 89.4627 72.8761 55.6464 72.8761 21.8301C72.8761 20.0356 73.3789 18.2971 73.6582 16.166C84.2158 15.7174 89.5783 23.0639 89.1314 30.6347C87.3998 61.7591 84.0481 92.8275 81.2551 123.896C78.4621 123.672 75.6133 123.447 72.8203 123.223L72.8761 123.279Z" fill="white"/>
</svg>
