<svg width="82" height="318" viewBox="0 0 82 318" fill="none" xmlns="http://www.w3.org/2000/svg">
<path d="M64.5322 208.371C48.8913 195.865 35.2055 198.501 21.408 210.333C20.5142 205.23 19.6204 203.043 19.788 200.968C24.4244 145.785 28.5581 90.6026 34.3676 35.588C35.5965 23.8112 36.9372 9.23037 54.8125 0.818359C60.1751 70.3016 65.761 137.542 64.4763 208.371H64.5322Z" fill="white"/>
<path d="M81.4579 279.76C80.3966 302.08 59.9517 318.736 33.6974 317.615C13.5318 316.773 -1.60648 299.332 1.29826 278.807C3.36509 264.17 6.94016 249.645 10.9062 235.345C12.5821 229.288 16.1571 223.232 20.3467 218.521C38.7806 197.884 56.9351 200.407 66.8783 226.148C73.5256 243.308 76.7098 261.815 81.4579 279.704V279.76Z" fill="white"/>
</svg>
