<svg width="172" height="300" viewBox="0 0 172 300" fill="none" xmlns="http://www.w3.org/2000/svg">
<path d="M78.3713 0.669922C78.3713 25.5134 78.0361 47.6089 78.483 69.7045C78.8181 84.3414 79.0417 99.2026 81.723 113.503C83.9574 125.504 91.3868 127.018 98.9838 117.429C111.385 101.782 122.669 85.2387 134.176 68.9194C146.13 51.9271 157.861 34.7666 171.546 18.2791C170.988 75.9855 159.76 131.28 137.248 185.286C102.615 170.536 68.4282 181.865 32.4541 185.51C32.901 177.939 33.6271 170.817 33.6271 163.695C33.7947 134.813 33.5154 105.988 33.8506 77.1071C34.1858 49.5157 53.0107 15.5311 78.3713 0.669922Z" fill="white"/>
<path d="M108.089 233.516C98.481 243.217 88.7612 250.34 77.8126 232.45C77.3098 234.245 76.807 236.095 76.3601 237.89C78.3153 240.245 80.6056 242.432 82.1697 245.068C85.9123 251.405 90.3253 257.518 92.6714 264.416C98.2016 280.791 89.4315 288.362 74.7961 293.914C45.0783 305.298 19.1034 297.727 2.79215 270.697C0.8929 267.556 0.0549406 262.173 1.33973 258.864C9.2719 238.675 17.7067 218.654 26.7561 198.97C28.3202 195.549 33.627 192.297 37.649 191.736C58.7642 188.539 79.9352 184.838 101.162 183.941C131.55 182.595 146.968 195.213 157.302 223.87C164.787 244.507 169.424 263.743 151.548 281.913C140.041 293.577 116.691 295.372 103.397 284.156C95.9112 277.875 97.7546 251.742 106.19 242.208C107.642 240.582 108.648 238.563 109.821 236.768C109.262 235.703 108.703 234.581 108.145 233.516H108.089Z" fill="white"/>
<path d="M87.9788 115.299C82.8955 96.7362 77.9798 78.5663 90.1015 59.8916C101.162 42.9554 110.882 25.1219 121.663 6.83984C137.974 22.0375 138.253 42.1142 131.717 57.7045C122.724 79.3514 106.58 98.026 93.5089 117.934C91.6656 117.037 89.7663 116.14 87.9229 115.299H87.9788Z" fill="white"/>
</svg>
