<svg width="133" height="272" viewBox="0 0 133 272" fill="none" xmlns="http://www.w3.org/2000/svg">
<path d="M93.1398 233.489C80.9064 232.031 72.6392 231.077 63.7574 230.012C65.0422 231.806 67.2765 234.947 69.5667 238.087C80.5154 252.949 74.0915 271.231 55.8811 271.567C41.6925 271.848 26.6101 267.922 13.5388 262.258C7.28246 259.566 1.75234 248.686 1.02615 241.003C-0.761381 222.385 5.27159 204.944 17.8402 190.756C21.4711 186.606 27.7832 182.905 33.0899 182.568C51.5239 181.446 70.1254 180.942 88.5035 182.232C97.6087 182.848 111.071 185.316 114.423 191.429C123.416 207.692 131.069 226.03 132.912 244.2C133.75 252.724 121.629 266.969 112.244 270.726C104.368 273.866 90.9055 267.193 82.0237 261.529C79.0631 259.622 81.7444 247.341 83.4761 240.162C84.0906 237.527 89.2854 236.012 93.1398 233.489Z" fill="white"/>
<path d="M111.965 176.286H24.1525C23.538 136.077 19.7396 96.0914 34.3191 57.6205C40.5196 41.1891 64.2045 19.0935 82.9177 13.5977C55.9371 49.9375 51.2448 86.5018 72.6951 128.842C78.5605 108.934 82.8059 91.8294 88.6713 75.2857C94.5366 58.686 102.078 42.7032 108.893 26.44C109.898 27.0008 110.904 27.5616 111.965 28.1224V176.398V176.286Z" fill="white"/>
<path d="M104.311 0.923828C108.277 10.85 107.496 19.4302 102.636 29.6929C93.0835 49.6013 85.8776 70.6874 77.8896 91.3249C75.9344 96.3721 74.6496 101.644 72.5828 108.261C55.7688 73.2671 75.0406 10.177 104.311 0.923828Z" fill="white"/>
</svg>
