<svg width="119" height="250" viewBox="0 0 119 250" fill="none" xmlns="http://www.w3.org/2000/svg">
<path d="M99.2976 154.314C53.1011 146.07 48.6323 146.575 14.6692 161.885C-17.7298 125.096 11.0383 18.3759 56.9556 5.19706C52.7102 28.9189 48.4648 52.5847 44.2194 76.3066C45.5601 76.6992 46.9007 77.0917 48.2414 77.4282C60.3631 53.3698 46.8449 17.4225 81.0873 0.878906C78.8529 53.7063 66.0049 105.244 99.3535 154.258L99.2976 154.314Z" fill="white"/>
<path d="M56.6206 237.256C58.3523 227.835 59.9164 219.535 61.8156 209.497C58.6316 211.852 55.8944 213.927 52.4311 216.507C50.6436 214.937 48.8002 213.03 46.6775 211.516C44.7224 210.058 42.488 208.992 37.0695 205.852C42.9348 215.666 47.7387 221.722 50.42 228.62C54.833 240.116 49.9732 247.407 37.9074 249.314C23.9982 251.501 9.58614 242.304 5.56419 228.676C5.28489 227.779 5.17325 226.882 4.94981 225.928C-5.8871 174.727 19.0824 153.921 70.6415 155.155C77.9033 155.323 85.221 157.847 92.3153 159.866C113.933 165.923 119.128 172.82 118.737 195.477C118.626 202.375 117.453 209.385 115.944 216.17C111.364 236.639 107.062 239.275 86.2265 237.369C77.5682 236.583 68.7981 237.256 56.6764 237.256H56.6206Z" fill="white"/>
<path d="M85.2206 43.9492C95.1079 72.2697 92.9851 98.1786 93.7113 124.536C82.0365 112.367 78.8525 83.71 85.2206 43.9492Z" fill="white"/>
</svg>
