<svg width="82" height="377" viewBox="0 0 82 377" fill="none" xmlns="http://www.w3.org/2000/svg">
<path d="M79.3819 47.2504C77.4826 71.3648 75.9744 95.5353 73.5725 119.594C71.0587 144.325 54.0772 159.074 35.364 152.12C29.2194 149.821 22.0692 142.53 20.7285 136.418C14.8632 108.714 10.8971 80.618 6.26072 52.6341C5.0318 45.2876 3.8029 37.9411 2.79741 30.5946C2.01537 24.6501 -1.11281 15.3969 1.4009 13.378C9.05377 7.20922 20.0024 -1.14671 27.6552 0.53569C42.7934 3.84441 57.764 11.7517 70.5001 21.0049C76.9799 25.7157 78.3206 37.4925 81.9515 46.0166C81.1136 46.4092 80.2198 46.8578 79.3819 47.2504Z" fill="white"/>
<path d="M23.2983 158.346C38.4924 157.112 52.1223 156.047 67.3163 154.869C67.2046 154.084 67.9308 156.551 67.9866 159.075C70.2769 224.184 72.7348 289.349 74.4664 354.514C74.6899 361.973 70.8355 369.487 68.8804 377.002C64.0206 370.497 56.9821 364.721 54.5801 357.43C37.0958 304.491 31.7891 249.308 26.1472 194.237C24.8624 181.395 24.0804 168.496 23.2983 158.402V158.346Z" fill="white"/>
</svg>
