<svg width="107" height="419" viewBox="0 0 107 419" fill="none" xmlns="http://www.w3.org/2000/svg">
<path d="M105.215 44.6825C102.086 76.1434 99.5167 104.856 96.2768 133.457C93.9307 153.983 87.7861 162.058 75.1616 163.628C57.398 165.816 39.0759 156.45 32.9312 140.748C28.1831 128.691 25.0549 116.016 20.9213 103.679C15.0559 86.0696 9.07883 68.5166 2.87833 51.0196C-1.08776 39.7475 1.0908 30.999 9.86087 22.2505C36.5621 -4.38754 38.1821 -5.50911 71.5866 10.9784C82.0325 16.1378 91.3053 24.1572 99.9636 32.0645C103.483 35.3172 104.097 41.7664 105.159 44.6265L105.215 44.6825Z" fill="white"/>
<path d="M41.3662 162.393C60.5822 168.169 76.6699 173.721 94.3776 160.262C94.3776 167.328 94.2659 172.151 94.3776 176.974C95.9417 242.587 97.3941 308.145 99.4051 373.702C99.7403 383.685 102.98 393.611 104.768 403.593C105.55 407.911 105.997 412.229 106.611 416.548C105.103 417.221 103.595 417.894 102.086 418.566C97.2824 410.211 92.0874 402.135 87.7862 393.499C63.5986 344.765 56.1133 291.769 49.0749 238.774C45.7791 214.043 44.0475 189.087 41.3662 162.337V162.393Z" fill="white"/>
</svg>
