<svg width="99" height="354" viewBox="0 0 99 354" fill="none" xmlns="http://www.w3.org/2000/svg">
<path d="M98.8792 59.2827C91.338 82.4438 85.4169 106.334 75.6972 128.542C67.0388 148.282 51.5656 149.684 37.8798 132.635C27.5456 119.793 20.3397 104.427 11.9048 90.0707C9.55862 86.089 7.93857 81.6587 6.03932 77.4527C-8.20507 45.3749 4.86636 14.5869 38.2708 2.02498C41.1756 0.959461 44.6947 0.286474 47.6553 0.903355C70.1112 5.67016 94.9691 35.7852 95.1366 58.049C96.3656 58.4415 97.6503 58.8902 98.8792 59.2827Z" fill="white"/>
<path d="M35.8687 141.159C61.5086 152.88 62.1231 152.768 81.6743 133.252C82.0094 138.804 82.5121 143.122 82.4562 147.496C82.0093 181.481 81.5066 215.465 80.948 249.45C80.5012 276.312 83.6293 302.446 96.0862 326.728C100.834 335.925 98.3206 343.552 89.4388 353.871C81.7859 343.72 72.2339 335.757 68.9381 325.663C50.0573 267.956 41.008 208.175 35.4778 147.833C35.3102 146.038 35.6454 144.188 35.813 141.159H35.8687Z" fill="white"/>
</svg>
