<svg width="105" height="344" viewBox="0 0 105 344" fill="none" xmlns="http://www.w3.org/2000/svg">
<path d="M104.55 56.3575C95.6678 76.5463 89.0762 97.7446 77.569 115.69C67.0114 132.178 29.2499 126.402 20.9826 107.951C12.827 89.7812 6.62642 70.6579 0.816945 51.5346C-0.691284 46.5435 1.15215 39.3652 3.83345 34.5424C26.5686 -6.56434 58.5765 -10.6021 90.5286 24.5601C97.3995 32.1309 99.3546 44.1881 104.55 56.3575Z" fill="white"/>
<path d="M25.1165 124.943C41.4277 126.794 57.1245 128.532 75.1115 130.551C75.8936 139.524 77.5693 151.806 77.8486 164.087C78.4073 192.968 78.9659 221.85 78.2397 250.731C77.6811 272.939 79.8038 294.193 88.518 314.887C92.0372 323.242 92.2606 333.057 93.9365 342.198C92.5399 342.758 91.1992 343.263 89.8027 343.824C85.8925 340.066 81.5912 336.646 78.1279 332.552C54.1638 304.287 37.5734 272.995 35.1155 234.804C32.7135 197.735 28.4122 160.835 25.0605 124.999L25.1165 124.943Z" fill="white"/>
</svg>
