<svg width="168" height="328" viewBox="0 0 168 328" fill="none" xmlns="http://www.w3.org/2000/svg">
<path d="M24.3735 102.558C63.4199 123.364 104.03 130.374 149.277 111.363C150.115 135.421 151.735 158.526 151.567 181.631C151.456 200.193 149.389 218.812 147.937 237.375C146.875 251.226 148.551 263.732 157.489 275.509C162.795 282.519 164.583 292.277 167.935 300.745L162.572 304.446C157.042 300.296 150.897 296.763 146.149 291.828C120.174 264.685 109.058 230.252 99.5615 194.978C98.2767 190.155 94.0873 186.061 91.2384 181.631C87.6633 186.454 81.5745 190.996 81.0159 196.1C76.2677 240.066 77.2173 283.528 98.1091 324.747C88.3894 331.084 81.5187 326.71 76.8822 320.373C69.8438 310.671 63.2523 300.296 58.3925 289.361C42.3606 253.413 32.2499 216.12 31.7472 176.135C31.4679 151.74 26.943 127.458 24.2617 102.502L24.3735 102.558Z" fill="white"/>
<path d="M75.5975 70.6486C83.6041 67.2464 96.0797 66.1622 113.024 67.396C112.745 66.5548 112.577 65.1527 112.074 65.0405C88.6688 58.367 94.0874 37.7296 91.9647 21.4664C90.9033 13.2226 107.55 5.3714 118.722 7.55852C139.39 11.6524 162.404 37.0566 161.455 57.1333C159.611 94.9312 152.573 109.849 120.677 115.344C88.0544 120.952 56.7167 116.017 28.5072 97.7914C1.86183 80.5187 -6.68474 47.3754 7.44792 19.1671C15.6594 2.84779 24.7646 -3.0967 42.0255 1.72619C56.0464 5.59571 69.4529 12.5496 82.1891 19.784C90.3447 24.4386 91.3501 50.0672 85.0938 58.4231C82.0215 62.5731 78.7815 66.5547 75.5975 70.6486Z" fill="white"/>
</svg>
