<svg width="161" height="304" viewBox="0 0 161 304" fill="none" xmlns="http://www.w3.org/2000/svg">
<path d="M94.9026 116.278C46.9744 116.39 7.70449 81.8452 1.05711 33.4481C0.610227 30.0272 1.22467 25.7651 2.95634 22.905C17.7035 -1.37766 51.0522 -6.8174 72.5585 12.0255C80.5465 18.9794 86.7469 20.5497 95.0143 13.0349C120.933 -10.5748 162.047 15.3903 160.427 46.2904C159.98 54.5903 160.259 63.1705 158.192 71.1339C149.757 103.997 132.161 116.222 94.8467 116.278H94.9026Z" fill="white"/>
<path d="M117.302 303.081C108.812 297.585 99.0921 293.323 92.1095 286.313C67.1399 261.302 50.661 231.803 47.477 195.632C45.0191 167.872 41.6118 140.225 38.707 113.082C57.0292 116.11 73.0611 120.148 89.3165 121.045C105.125 121.943 121.157 119.587 139.479 118.522C144.115 172.751 152.215 229 148.137 285.865C146.406 286.313 144.618 286.706 142.887 287.155C126.966 249.525 111.046 211.895 94.3439 172.359C74.8486 221.877 90.0427 261.806 122.833 298.034C120.989 299.716 119.146 301.455 117.302 303.137V303.081Z" fill="white"/>
</svg>
