<svg width="141" height="257" viewBox="0 0 141 257" fill="none" xmlns="http://www.w3.org/2000/svg">
<path d="M73.1278 105.222C66.9831 104.662 58.6599 102.867 50.3926 103.26C5.98358 105.222 -11.2773 44.3195 9.00002 10.8397C11.1227 7.30665 17.9377 4.83912 22.5183 5.00736C27.7133 5.1756 33.2434 8.09176 37.7681 11.1762C46.3706 16.9524 53.0738 16.672 60.6708 8.87686C69.3851 0.016205 81.1157 -2.05874 91.1705 5.34383C104.465 15.0457 119.436 24.8036 127.983 38.1507C147.143 68.0974 129.938 100.119 94.7457 104.213C88.3218 104.942 81.7861 104.886 73.0718 105.279L73.1278 105.222Z" fill="white"/>
<path d="M115.917 243.235C105.136 259.274 102.901 259.779 90.4443 247.217C63.1844 219.794 42.2366 187.996 29.7239 151.432C24.9199 137.356 24.6966 121.654 22.5181 107.914H117.09C118.43 130.626 118.486 155.246 121.782 179.416C124.351 197.923 131.055 215.924 135.97 234.094C137.758 240.712 145.914 248.283 136.361 253.33C133.122 255.012 125.636 248.675 120.106 245.927C118.933 245.31 117.816 244.525 115.917 243.291V243.235Z" fill="white"/>
</svg>
