<svg width="80" height="371" viewBox="0 0 80 371" fill="none" xmlns="http://www.w3.org/2000/svg">
<path d="M1.82663 50.7564C1.82663 47.9524 1.15625 44.9802 1.93829 42.4005C5.28992 31.3527 5.79265 15.2578 13.2779 10.6031C28.472 1.23775 47.1293 -4.87501 66.0101 5.2194C74.6685 9.87405 80.2545 16.3233 78.9698 26.1934C74.5568 60.6826 70.1997 95.2279 64.502 129.549C62.3234 142.56 50.4251 147.831 38.7503 149.457C27.1314 151.084 13.7807 140.485 11.5463 127.979C7.02159 102.406 3.83757 76.6093 0.0390625 50.9247C0.653526 50.8686 1.21217 50.7564 1.82663 50.7003V50.7564Z" fill="white"/>
<path d="M20.0926 152.148H57.9659C67.2946 211.593 45.0622 338.727 17.4672 370.58C15.7355 365.477 14.1156 361.776 13.2777 357.906C12.719 355.214 13.1101 352.354 13.2777 349.55C15.5679 283.488 17.8583 217.482 20.1485 152.148H20.0926Z" fill="white"/>
</svg>
