<svg width="82" height="380" viewBox="0 0 82 380" fill="none" xmlns="http://www.w3.org/2000/svg">
<path d="M54.3002 0.732422C62.5675 5.94787 71.2259 11.0511 79.4373 16.8274C80.9456 17.8929 81.2807 21.9307 80.8897 24.3421C75.8622 53.1112 70.6114 81.8242 65.3047 110.537C63.7964 118.781 61.3944 126.913 60.6123 135.156C59.551 146.316 54.5794 153.27 43.5191 155.906C31.7884 158.71 21.957 155.289 15.2538 145.868C11.1201 140.035 7.60089 132.689 6.87471 125.679C4.13755 100.218 3.02037 74.646 0.618374 49.1856C-1.16916 30.3427 8.82983 19.351 24.0797 12.0606C33.1849 7.68633 43.0722 4.93841 54.3002 0.844563V0.732422Z" fill="white"/>
<path d="M12.405 157.421C26.7611 158.823 40.391 160.169 56.1995 161.683C55.585 171.049 55.1381 183.723 53.7975 196.285C47.8204 250.851 42.793 305.585 26.0908 358.3C24.2474 364.02 22.2923 369.909 19.22 374.956C17.6559 377.479 13.4105 379.386 10.3381 379.442C8.77404 379.442 6.37204 375.012 5.70171 372.264C4.69623 368.282 4.52869 363.964 4.69627 359.814C7.0424 293.247 9.50024 226.736 12.014 160.169C12.0698 158.431 12.5726 156.748 12.4609 157.421H12.405Z" fill="white"/>
</svg>
