<svg width="106" height="423" viewBox="0 0 106 423" fill="none" xmlns="http://www.w3.org/2000/svg">
<path d="M0.667969 48.3542C4.13131 42.5219 7.48295 31.4181 14.9124 25.754C27.5927 16.0521 42.8983 9.77115 57.0869 2.08818C58.3158 1.41521 59.6565 0.910506 60.9972 0.742265C76.4705 -1.10838 109.428 35.0633 104.792 49.9245C95.0161 81.3854 84.7936 112.678 73.6774 143.69C67.6445 160.458 45.7472 171.506 28.9891 165.506C22.2859 163.094 14.5772 154.121 13.4041 147.111C8.15325 116.043 5.1368 84.5819 0.667969 48.2981V48.3542Z" fill="white"/>
<path d="M1.39407 422.127C0.779604 417.921 -0.225865 415.678 0.276878 413.771C15.415 357.13 8.82352 298.919 11.8958 241.493C13.2365 216.482 12.1193 191.302 12.1193 168.926H62.0026C73.3422 220.015 33.5697 392.685 1.33824 422.183L1.39407 422.127Z" fill="white"/>
</svg>
