<svg width="101" height="351" viewBox="0 0 101 351" fill="none" xmlns="http://www.w3.org/2000/svg">
<path d="M3.80727 58.4405C2.18732 41.9529 8.72298 29.391 21.9619 20.0817C24.9783 17.9506 27.8831 15.6514 30.9554 13.4642C54.4167 -3.19154 57.6008 -3.35977 75.7554 11.1089C99.4961 30.0079 106.367 45.8225 96.8148 66.7964C87.0392 88.219 76.8726 109.922 63.5778 129.214C48.4397 151.085 31.1789 149.234 21.0123 125.176C12.1305 104.09 7.04719 81.3211 0.288086 59.3377C1.46115 59.0573 2.63421 58.7209 3.80727 58.4405Z" fill="white"/>
<path d="M66.2591 143.347C58.0476 190.454 50.0595 237.561 41.4011 284.556C39.1667 296.838 34.5862 308.727 31.6256 320.952C28.3298 334.58 20.4535 344.113 7.49395 350.899C0.232101 344.057 -2.11404 336.318 2.46651 327.345C16.7109 299.361 18.1633 269.358 17.7164 238.851C17.2137 204.418 17.6047 169.985 17.6047 131.514C29.7822 152.375 44.641 153.665 61.5667 140.43C63.1308 141.44 64.6391 142.393 66.2031 143.403L66.2591 143.347Z" fill="white"/>
</svg>
