<svg width="102" height="346" viewBox="0 0 102 346" fill="none" xmlns="http://www.w3.org/2000/svg">
<path d="M44.0932 126.831C33.9825 126.215 23.8159 122.009 18.6767 109.615C13.7052 97.6138 8.34255 85.7248 4.0413 73.4993C-4.33775 49.4971 3.20343 29.3082 24.7097 16.4098C29.8488 13.3254 35.0997 10.2971 40.4064 7.43701C59.7341 -2.93781 65.8229 -1.92837 81.2962 14.447C83.8658 17.1389 85.9885 20.2233 88.6139 22.859C101.518 36.2061 105.316 50.8429 97.0488 68.4521C92.1331 78.939 89.2284 90.3233 84.983 101.091C78.0563 118.476 65.376 126.719 44.0932 126.775V126.831Z" fill="white"/>
<path d="M8.51025 344.029C9.62746 336.57 9.18059 328.439 12.1412 321.821C23.816 295.463 24.1511 267.928 23.816 239.832C23.3132 203.212 24.8215 166.535 25.3801 132.27C43.9816 130.476 59.7342 128.906 76.6599 127.279C75.2075 142.253 73.5317 159.077 71.9117 175.901C69.2863 203.212 68.7277 230.915 63.4769 257.722C56.7736 292.099 39.1217 321.428 13.3701 345.262C11.7502 344.87 10.1302 344.477 8.51025 344.085V344.029Z" fill="white"/>
</svg>
