<svg width="168" height="328" viewBox="0 0 168 328" fill="none" xmlns="http://www.w3.org/2000/svg">
<path d="M0.289062 300.688C3.36138 292.557 4.75791 283.023 9.95292 276.574C20.6222 263.227 20.6223 248.646 20.0078 233C18.7789 199.52 18.332 166.04 17.8851 132.56C17.8292 126.223 19.3933 119.83 19.7844 116.465C42.1285 118.372 63.2996 122.97 83.8562 121.064C104.525 119.157 124.523 110.745 145.47 104.969C129.829 154.263 143.012 209.502 121.283 259.525C112.959 278.649 104.357 297.716 94.5255 316.054C90.2801 323.961 83.1858 331.252 72.5724 326.485C77.8791 304.053 85.1409 282.294 87.7105 260.03C90.1684 238.495 88.3808 216.344 86.8726 194.529C86.5374 189.874 79.3873 185.668 75.3654 181.294C73.0751 185.388 69.7235 189.201 68.6063 193.575C59.7245 229.074 48.329 263.339 22.7449 290.818C17.941 295.977 11.8522 299.847 6.32199 304.333C4.31102 303.1 2.30004 301.866 0.289062 300.576V300.688Z" fill="white"/>
<path d="M53.4685 66.6109C71.5672 67.2278 85.9233 68.9663 92.2356 71.4338C82.0131 59.7131 75.3657 46.9268 81.0635 31.5047C82.9627 26.2893 85.9792 19.8962 90.3922 17.5969C102.514 11.2038 115.362 5.76401 128.377 1.55801C141.84 -2.76016 151.671 4.02554 158.709 15.4098C173.792 39.6925 168.988 75.135 146.42 92.576C113.742 117.812 76.1477 123.476 37.0455 112.54C10.9587 105.25 -3.17392 63.2461 12.6346 38.7391C20.2316 26.9623 32.7443 16.8678 45.257 10.0822C62.1268 0.941107 75.645 13.447 75.1423 32.4581C74.6954 48.7774 70.5617 60.8907 53.4685 66.5548V66.6109Z" fill="white"/>
</svg>
