<svg width="162" height="301" viewBox="0 0 162 301" fill="none" xmlns="http://www.w3.org/2000/svg">
<path d="M71.3426 116.111C21.0683 117.008 -7.81149 78.7619 2.85784 35.0194C8.05285 13.7651 43.0773 -7.7136 63.6898 10.905C74.5267 20.6629 82.3471 18.5319 92.9047 9.22261C111.618 -7.26493 150.05 2.38083 159.937 24.8129C161.166 27.5608 161.445 31.4303 160.496 34.2343C156.586 45.6186 153.234 57.4515 147.48 67.9384C129.94 100.072 105.306 121.214 71.3426 116.111Z" fill="white"/>
<path d="M22.9672 115.494C57.3213 125.981 88.4913 124.075 120.667 111.793C120.667 120.934 121.393 129.57 120.555 138.038C118.041 162.994 116.142 188.174 111.729 212.849C106.143 244.198 88.7148 269.49 65.5886 290.576C59.6674 295.96 51.1766 298.596 41.2893 300.446C72.236 262.2 86.9272 221.766 68.1023 170.789C51.1766 211.223 35.2564 249.189 19.3362 287.155C17.4928 286.763 15.6494 286.426 13.806 286.034C10.622 229.281 17.6604 172.976 23.023 115.438L22.9672 115.494Z" fill="white"/>
</svg>
