<svg width="140" height="255" viewBox="0 0 140 255" fill="none" xmlns="http://www.w3.org/2000/svg">
<path d="M66.4815 104.222C57.9349 103.829 51.4551 103.661 44.9753 103.156C27.2117 101.81 14.6431 93.4545 7.71645 76.4062C0.510467 58.6849 5.48203 43.0385 16.6541 29.6915C24.307 20.6065 34.2501 13.0918 44.1933 6.41822C56.4825 -1.82555 69.6656 -2.72283 80.8377 8.82967C87.1499 15.335 92.5125 15.2228 100.221 11.2411C126.978 -2.4985 134.743 1.76355 138.541 32.3272C139.659 41.3561 139.77 51.2262 137.424 59.9186C130.889 84.2013 117.482 101.754 89.3843 102.147C81.0611 102.259 72.7938 103.549 66.4815 104.166V104.222Z" fill="white"/>
<path d="M22.0724 106.803H117.705C115.415 120.935 115.08 137.535 109.829 152.34C97.428 187.334 77.2065 218.066 51.2314 244.704C37.6015 258.724 35.8699 258.387 21.1786 239.04C18.4973 243.582 16.8215 248.181 13.6374 251.209C11.5706 253.116 5.87285 254.293 4.36462 252.947C1.90677 250.76 1.40403 246.218 0.28682 242.629C0.0633787 241.956 0.789564 240.89 1.23645 240.049C23.3013 199.896 21.7372 155.929 21.7372 112.186C21.7372 109.887 22.0724 107.588 22.1282 106.803H22.0724Z" fill="white"/>
</svg>
